<?xml version="1.0" encoding="UTF-8"?>
<svg id="_Шар_2" data-name="Шар 2" xmlns="http://www.w3.org/2000/svg" viewBox="0 0 157.11 35.18">
  <defs>
    <style>
      .cls-1, .cls-2 {
        stroke-width: 0px;
      }

      .cls-2 {
        fill: #ea580c;
      }
    </style>
  </defs>
  <g id="_Шар_1-2" data-name="Шар 1">
    <g>
      <path class="cls-1" d="m12.35,12.89c-.48-.96-1.42-1.44-2.82-1.44-1.63,0-2.72.48-3.28,1.44-.31.55-.46,1.36-.46,2.45v11.99H0V7.44h5.54v2.91c.71-1.04,1.37-1.77,2-2.21,1.11-.78,2.54-1.17,4.3-1.17,1.67,0,3.02.34,4.04,1.01.83.62,1.45,1.42,1.88,2.39.75-1.17,1.67-2.03,2.78-2.58,1.17-.55,2.48-.82,3.92-.82.96,0,1.91.17,2.84.51.93.34,1.78.94,2.54,1.79.61.69,1.03,1.55,1.24,2.56.13.67.2,1.65.2,2.94l-.04,12.55h-5.84v-12.68c0-.76-.13-1.38-.4-1.86-.51-.93-1.44-1.39-2.8-1.39-1.57,0-2.66.6-3.26,1.79-.31.63-.46,1.39-.46,2.28v11.86h-5.74v-11.86c0-1.18-.13-2.04-.4-2.58Z"/>
      <path class="cls-1" d="m36.61,16.42c1.13-.6,2.8-1.02,5-1.28l1.94-.22c1.05-.12,1.81-.27,2.26-.46.81-.32,1.22-.81,1.22-1.48,0-.82-.31-1.38-.93-1.69-.62-.31-1.53-.47-2.73-.47-1.35,0-2.3.3-2.86.91-.4.45-.67,1.06-.8,1.83h-5.5c.12-1.74.65-3.17,1.6-4.29,1.51-1.75,4.1-2.63,7.77-2.63,2.39,0,4.51.43,6.36,1.3,1.85.86,2.78,2.5,2.78,4.9v9.14c0,.63.01,1.4.04,2.3.04.68.15,1.15.34,1.39.19.24.47.44.84.6v.77h-6.21c-.17-.4-.29-.78-.36-1.13-.07-.35-.12-.76-.16-1.21-.79.78-1.69,1.44-2.72,1.99-1.23.65-2.62.97-4.16.97-1.97,0-3.61-.52-4.89-1.54-1.29-1.03-1.93-2.49-1.93-4.38,0-2.45,1.03-4.22,3.1-5.32Zm8.81,6.47c1.03-.66,1.56-1.86,1.6-3.6v-1.94c-.36.21-.72.37-1.09.5-.37.13-.87.25-1.51.36l-1.28.22c-1.2.19-2.06.43-2.58.71-.88.48-1.32,1.21-1.32,2.21,0,.89.27,1.53.81,1.93.54.4,1.2.59,1.97.59,1.23,0,2.36-.33,3.4-.99Z"/>
      <path class="cls-1" d="m63,30.52c.61.48,1.65.71,3.1.71,2.05,0,3.43-.63,4.12-1.88.45-.8.68-2.16.68-4.06v-1.28c-.55.85-1.13,1.49-1.76,1.92-1.13.79-2.61,1.19-4.42,1.19-2.8,0-5.04-.9-6.71-2.7-1.67-1.8-2.51-4.23-2.51-7.3s.81-5.45,2.42-7.47c1.61-2.02,3.9-3.02,6.86-3.02,1.09,0,2.05.15,2.86.46,1.39.52,2.51,1.49,3.36,2.89v-2.87h5.54v18.9c0,2.57-.47,4.51-1.42,5.81-1.63,2.24-4.75,3.36-9.37,3.36-2.79,0-5.06-.5-6.83-1.5-1.76-1-2.74-2.49-2.92-4.48h6.2c.16.61.42,1.05.78,1.32Zm3.14-19.33c-2,0-3.38.86-4.14,2.58-.4.91-.6,2.04-.6,3.38,0,1.16.21,2.19.64,3.09.77,1.68,2.16,2.52,4.16,2.52,1.33,0,2.46-.46,3.38-1.38.92-.92,1.38-2.38,1.38-4.4,0-1.89-.44-3.33-1.31-4.31-.87-.99-2.05-1.48-3.51-1.48Z"/>
      <path class="cls-1" d="m84.46,7.18v19.92h-5.78V7.18h5.78Zm0-7.18v4.81h-5.78V0h5.78Z"/>
      <path class="cls-1" d="m130.24,6.64c-3.67,0-6.25.87-7.75,2.62-.95,1.12-1.49,2.55-1.61,4.3h5.52c.13-.77.4-1.36.8-1.82.56-.61,1.5-.93,2.85-.93,1.2,0,2.12.17,2.74.48.62.31.93.86.93,1.67,0,.67-.4,1.18-1.22,1.49-.45.18-1.22.32-2.28.44l-1.92.22c-2.2.26-3.88.69-5.02,1.29-2.07,1.1-3.09,2.86-3.09,5.31,0,1.89.63,3.35,1.92,4.38,1.29,1.03,2.93,1.55,4.9,1.55,1.55,0,2.93-.32,4.15-.97,1.03-.55,1.93-1.22,2.72-2,.04.45.11.86.18,1.21.07.35.18.73.35,1.13h6.21v-.77c-.37-.16-.65-.36-.84-.61-.19-.24-.31-.71-.35-1.39-.03-.9-.04-1.67-.04-2.3v-9.14c0-2.4-.93-4.04-2.78-4.9-1.86-.86-3.97-1.29-6.36-1.29Zm3.45,10.71v1.94c-.04,1.74-.56,2.93-1.59,3.59-1.04.66-2.17.99-3.4.99-.77,0-1.45-.19-1.99-.58-.54-.4-.8-1.05-.8-1.94,0-1,.44-1.72,1.33-2.2.52-.28,1.36-.53,2.56-.73l1.28-.22c.64-.11,1.16-.21,1.52-.34.37-.13.72-.3,1.08-.5Z"/>
      <path class="cls-1" d="m143.14.1v26.93h5.7V.1h-5.7Z"/>
      <path class="cls-1" d="m151.41.1v26.93h5.7V.1h-5.7Z"/>
      <path class="cls-2" d="m102.25.26c-5.38,0-9.4,1.53-12.04,4.56-2.64,3.03-3.95,6.62-3.95,10.75s1.31,7.8,3.95,10.79c2.64,2.99,6.66,4.48,12.04,4.48s9.38-1.49,12.02-4.48c2.12-2.39,3.34-5.19,3.76-8.37-.25.08-.5.16-.82.16h-6.61l1.3,1.05c.52.42.08,1.05-.71,1.05h-2.39v6.64h-7.38v-6.7h-2.39c-.78,0-1.24-.7-.71-1.11l1.24-.93h-6.54c-1.66,0-2.53-1.35-1.46-2.26l12.09-10.17c.39-.33.91-.48,1.46-.48s1.07.16,1.46.48l11.64,9.76c-.02-4.1-1.33-7.66-3.95-10.67-2.64-3.03-6.64-4.56-12.02-4.56Zm2.87,7.16c-.81,0-1.46.58-1.46,1.29s.65,1.29,1.46,1.29,1.46-.58,1.46-1.29-.65-1.29-1.46-1.29Zm3.12,3.33c-.6,0-1.08.44-1.08.97s.48.95,1.08.95,1.08-.42,1.08-.95-.48-.97-1.08-.97Zm-9.37,1.65c-1.08,0-1.94.78-1.94,1.74s.86,1.71,1.94,1.71,1.97-.76,1.97-1.71-.89-1.74-1.97-1.74Zm14.18.26c-1.07,0-1.92.78-1.92,1.76s.85,1.76,1.92,1.76,1.94-.78,1.94-1.76-.88-1.76-1.94-1.76Zm-8.06.61c-.81,0-1.48.58-1.48,1.29s.67,1.29,1.48,1.29,1.46-.58,1.46-1.29-.65-1.29-1.46-1.29Zm-11.31,1.96c-.6,0-1.08.42-1.08.95s.48.97,1.08.97,1.08-.44,1.08-.97-.48-.95-1.08-.95Z"/>
    </g>
  </g>
</svg>