<?xml version="1.0" encoding="UTF-8"?>
<svg id="_Шар_2" data-name="Шар 2" xmlns="http://www.w3.org/2000/svg" viewBox="0 0 31.97 30.58">
  <defs>
    <style>
      .cls-1 {
        fill: #ea580c;
        stroke-width: 0px;
      }
    </style>
  </defs>
  <g id="_Шар_1-2" data-name="Шар 1">
    <path class="cls-1" d="m16,0C10.62,0,6.59,1.53,3.95,4.56,1.31,7.59,0,11.17,0,15.31s1.31,7.8,3.95,10.79c2.64,2.99,6.66,4.48,12.04,4.48s9.38-1.49,12.02-4.48c2.12-2.39,3.34-5.19,3.76-8.37-.25.08-.5.16-.82.16h-6.61l1.3,1.05c.52.42.08,1.05-.71,1.05h-2.39v6.64h-7.38v-6.7h-2.39c-.78,0-1.24-.7-.71-1.11l1.24-.93h-6.54c-1.66,0-2.53-1.35-1.46-2.26l12.09-10.17c.39-.33.91-.48,1.46-.48s1.07.16,1.46.48l11.64,9.76c-.02-4.1-1.33-7.66-3.95-10.67C25.37,1.53,21.37,0,16,0Zm2.87,7.16c-.81,0-1.46.58-1.46,1.29s.65,1.29,1.46,1.29,1.46-.58,1.46-1.29-.65-1.29-1.46-1.29Zm3.12,3.33c-.6,0-1.08.44-1.08.97s.48.95,1.08.95,1.08-.42,1.08-.95-.48-.97-1.08-.97Zm-9.37,1.65c-1.08,0-1.94.78-1.94,1.74s.86,1.71,1.94,1.71,1.97-.76,1.97-1.71-.89-1.74-1.97-1.74Zm14.18.26c-1.07,0-1.92.78-1.92,1.76s.85,1.76,1.92,1.76,1.94-.78,1.94-1.76-.88-1.76-1.94-1.76Zm-8.06.61c-.81,0-1.48.58-1.48,1.29s.67,1.29,1.48,1.29,1.46-.58,1.46-1.29-.65-1.29-1.46-1.29Zm-11.31,1.96c-.6,0-1.08.42-1.08.95s.48.97,1.08.97,1.08-.44,1.08-.97-.48-.95-1.08-.95Z"/>
  </g>
</svg>